<svg width="56" height="56" viewBox="0 0 56 56" fill="none" xmlns="http://www.w3.org/2000/svg">
<circle cx="28" cy="28" r="28" fill="#FAFAFA"/>
<circle cx="28" cy="28" r="27.5" stroke="black" stroke-opacity="0.05"/>
<path d="M30 28C30 29.1046 29.1046 30 28 30C26.8954 30 26 29.1046 26 28C26 26.8954 26.8954 26 28 26C29.1046 26 30 26.8954 30 28Z" fill="#ACB0B9"/>
<path d="M36 28C36 29.1046 35.1046 30 34 30C32.8954 30 32 29.1046 32 28C32 26.8954 32.8954 26 34 26C35.1046 26 36 26.8954 36 28Z" fill="#ACB0B9"/>
<path d="M24 28C24 29.1046 23.1046 30 22 30C20.8954 30 20 29.1046 20 28C20 26.8954 20.8954 26 22 26C23.1046 26 24 26.8954 24 28Z" fill="#ACB0B9"/>
</svg>
