<svg width="16" height="20" viewBox="0 0 16 20" fill="none" xmlns="http://www.w3.org/2000/svg">
<path fill-rule="evenodd" clip-rule="evenodd" d="M4.47952 0.438587C5.25482 0.029958 6.20497 0.266855 6.74498 1.00343C6.76978 1.03726 6.79257 1.07253 6.8132 1.10905L8.64443 4.34945C9.2295 5.2204 8.87689 6.31317 8.16595 6.80066L6.88808 7.67688C7.0365 8.34442 7.34523 9.42788 7.91267 10.3572C8.45083 11.2386 9.147 11.9788 9.62668 12.4365L10.7994 11.6324C11.1711 11.3775 11.6414 11.2602 12.1242 11.3806C12.607 11.501 12.9851 11.829 13.221 12.2354L15.0898 15.4552C15.5858 16.3097 15.3745 17.3378 14.5929 17.8737C14.5786 17.8836 14.564 17.893 14.5491 17.902L12.4732 19.162L12.4532 19.1738C12.4237 19.1907 12.3836 19.2154 12.3353 19.2451C12.1617 19.352 11.882 19.5242 11.6085 19.6348C11.1888 19.8045 10.7074 19.8872 10.0878 19.8392C8.81077 19.7403 7.98523 19.1282 7.2095 18.553L7.1969 18.5436C5.78321 17.4954 4.3518 15.7898 3.14948 13.7183C1.1513 10.2756 0.752058 6.37579 0.679563 4.52089C0.640344 3.51741 1.15626 2.67748 1.90753 2.22781L4.3793 0.499705C4.4114 0.477262 4.44487 0.456853 4.47952 0.438587ZM8.98909 14.4945L8.98821 14.4938L8.98702 14.4928L8.98384 14.4903L8.97437 14.4827L8.94342 14.4576C8.91761 14.4365 8.88162 14.4066 8.83677 14.3686C8.42839 14.0221 7.16746 12.8937 6.24045 11.3755C5.33516 9.89288 4.97335 8.20731 4.86103 7.58109C4.77797 7.11806 4.90111 6.56441 5.38729 6.23104L6.88019 5.20738L5.27378 2.3648L3.04018 3.92638C3.01725 3.94242 2.99362 3.95741 2.96935 3.97133C2.76301 4.08969 2.65116 4.29321 2.65989 4.51648C2.72777 6.25351 3.10644 9.74373 4.84595 12.7407C5.95135 14.6452 7.20638 16.0994 8.32369 16.9279C9.11261 17.5128 9.51376 17.7768 10.164 17.8271C10.5114 17.854 10.6935 17.8057 10.8179 17.7554C10.891 17.7258 10.9661 17.6864 11.065 17.6277C11.0866 17.6148 11.1221 17.5931 11.1641 17.5674C11.243 17.5192 11.3449 17.4568 11.421 17.4128L13.3002 16.2723L11.6894 13.497L10.1534 14.5502C9.80385 14.7899 9.33386 14.7674 8.98909 14.4945ZM11.9492 13.3189C11.9492 13.3189 11.9492 13.3189 11.9492 13.3189V13.3189ZM10.1695 12.9199C10.1697 12.92 10.1697 12.92 10.1695 12.9199V12.9199Z" fill="#00B798"/>
</svg>
